<svg width="402" height="211" viewBox="0 0 402 211" fill="none" xmlns="http://www.w3.org/2000/svg">
<rect x="2.5" y="2.5" width="397" height="206" stroke="black" stroke-width="5"/>
<path d="M100.188 155V52.625H133.164C142.211 52.625 150.344 54.6875 157.562 58.8125C164.781 62.8906 170.406 68.6797 174.438 76.1797C178.516 83.6328 180.578 92 180.625 101.281V105.992C180.625 115.367 178.633 123.781 174.648 131.234C170.711 138.641 165.133 144.453 157.914 148.672C150.742 152.844 142.727 154.953 133.867 155H100.188ZM124.867 71.6797V136.016H133.445C140.523 136.016 145.961 133.508 149.758 128.492C153.555 123.43 155.453 115.93 155.453 105.992V101.562C155.453 91.6719 153.555 84.2188 149.758 79.2031C145.961 74.1875 140.43 71.6797 133.164 71.6797H124.867Z" fill="black"/>
<path d="M228.008 52.625L250.859 123.852L273.641 52.625H306.125V155H281.375V131.094L283.766 82.1562L259.016 155H242.703L217.883 82.0859L220.273 131.094V155H195.594V52.625H228.008Z" fill="black"/>
</svg>
