<svg width="402" height="211" viewBox="0 0 402 211" fill="none" xmlns="http://www.w3.org/2000/svg">
<rect x="2.5" y="2.5" width="397" height="206" stroke="black" stroke-width="5"/>
<path d="M96.2449 156V53.76H135.557C146.885 53.76 156.341 56.064 163.925 60.672C171.605 65.184 177.365 71.328 181.205 79.104C185.141 86.784 187.109 95.328 187.109 104.736C187.109 115.104 184.949 124.128 180.629 131.808C176.405 139.488 170.405 145.44 162.629 149.664C154.949 153.888 145.925 156 135.557 156H96.2449ZM158.597 104.736C158.597 96.768 156.533 90.384 152.405 85.584C148.373 80.688 142.757 78.24 135.557 78.24H124.325V131.52H135.557C142.949 131.52 148.613 128.976 152.549 123.888C156.581 118.8 158.597 112.416 158.597 104.736Z" fill="black"/>
<path d="M275.659 156V102.144L258.523 140.016H243.547L226.411 102.144V156H198.331V53.76H229.003L251.035 101.856L273.211 53.76H303.739V156H275.659Z" fill="black"/>
</svg>
