<svg height="36" viewBox="0 0 2141 223" fill="none"
    xmlns="http://www.w3.org/2000/svg">
    <g clip-path="url(#clip0_8_0)">
        <path d="M73.3998 0L-0.558777 37.3333L-0.558777 112L73.3998 149.333L147.358 112V37.3333L73.3998 0Z" fill="#FFFFFF" fill-opacity="0.9" />
        <path d="M146.6 37.333L72.6414 74.6663L72.6414 149.333L146.6 186.666L220.559 149.333V74.6663L146.6 37.333Z" fill="#FFFFFF" fill-opacity="0.9" />
        <path d="M73.3998 74.6665L-0.558777 112L-0.558777 186.667L73.3998 224L147.358 186.667V112L73.3998 74.6665Z" fill="#FFFFFF" fill-opacity="0.9" />
        <path d="M393.365 7.26399V208H367.157V116.992H264.917V208H238.709V7.26399H264.917V95.392H367.157V7.26399H393.365ZM562.531 163.36H474.979L458.851 208H431.203L503.779 8.41599H534.019L606.307 208H578.659L562.531 163.36ZM555.043 142.048L518.755 40.672L482.467 142.048H555.043ZM633.906 107.488C633.906 87.904 638.322 70.336 647.154 54.784C655.986 39.04 667.986 26.752 683.154 17.92C698.514 9.08799 715.506 4.67199 734.13 4.67199C756.018 4.67199 775.122 9.95199 791.442 20.512C807.762 31.072 819.666 46.048 827.154 65.44H795.762C790.194 53.344 782.13 44.032 771.57 37.504C761.202 30.976 748.722 27.712 734.13 27.712C720.114 27.712 707.538 30.976 696.402 37.504C685.266 44.032 676.53 53.344 670.194 65.44C663.858 77.344 660.69 91.36 660.69 107.488C660.69 123.424 663.858 137.44 670.194 149.536C676.53 161.44 685.266 170.656 696.402 177.184C707.538 183.712 720.114 186.976 734.13 186.976C748.722 186.976 761.202 183.808 771.57 177.472C782.13 170.944 790.194 161.632 795.762 149.536H827.154C819.666 168.736 807.762 183.616 791.442 194.176C775.122 204.544 756.018 209.728 734.13 209.728C715.506 209.728 698.514 205.408 683.154 196.768C667.986 187.936 655.986 175.744 647.154 160.192C638.322 144.64 633.906 127.072 633.906 107.488ZM980.791 208L898.135 116.416V208H871.927V7.26399H898.135V100.288L981.079 7.26399H1014.2L923.191 107.776L1015.06 208H980.791ZM1168.75 163.36H1081.2L1065.07 208H1037.42L1110 8.41599H1140.24L1212.52 208H1184.88L1168.75 163.36ZM1161.26 142.048L1124.97 40.672L1088.68 142.048H1161.26ZM1312.41 7.26399C1334.3 7.26399 1353.21 11.392 1369.15 19.648C1385.28 27.712 1397.56 39.328 1406.01 54.496C1414.65 69.664 1418.97 87.52 1418.97 108.064C1418.97 128.608 1414.65 146.464 1406.01 161.632C1397.56 176.608 1385.28 188.128 1369.15 196.192C1353.21 204.064 1334.3 208 1312.41 208H1249.92V7.26399H1312.41ZM1312.41 186.4C1338.33 186.4 1358.11 179.584 1371.74 165.952C1385.37 152.128 1392.19 132.832 1392.19 108.064C1392.19 83.104 1385.28 63.616 1371.45 49.6C1357.82 35.584 1338.14 28.576 1312.41 28.576H1276.12V186.4H1312.41ZM1485.51 28.576V95.68H1558.66V117.28H1485.51V186.4H1567.3V208H1459.3V6.976H1567.3V28.576H1485.51ZM1816.33 8.70399V208H1790.12V59.392L1723.88 208H1705.45L1638.92 59.104V208H1612.72V8.70399H1640.94L1714.67 173.44L1788.4 8.70399H1816.33ZM1892.75 7.26399V208H1866.54V7.26399H1892.75ZM1933.38 107.488C1933.38 87.904 1937.8 70.336 1946.63 54.784C1955.46 39.04 1967.46 26.752 1982.63 17.92C1997.99 9.08799 2014.98 4.67199 2033.61 4.67199C2055.49 4.67199 2074.6 9.95199 2090.92 20.512C2107.24 31.072 2119.14 46.048 2126.63 65.44H2095.24C2089.67 53.344 2081.61 44.032 2071.05 37.504C2060.68 30.976 2048.2 27.712 2033.61 27.712C2019.59 27.712 2007.01 30.976 1995.88 37.504C1984.74 44.032 1976.01 53.344 1969.67 65.44C1963.33 77.344 1960.17 91.36 1960.17 107.488C1960.17 123.424 1963.33 137.44 1969.67 149.536C1976.01 161.44 1984.74 170.656 1995.88 177.184C2007.01 183.712 2019.59 186.976 2033.61 186.976C2048.2 186.976 2060.68 183.808 2071.05 177.472C2081.61 170.944 2089.67 161.632 2095.24 149.536H2126.63C2119.14 168.736 2107.24 183.616 2090.92 194.176C2074.6 204.544 2055.49 209.728 2033.61 209.728C2014.98 209.728 1997.99 205.408 1982.63 196.768C1967.46 187.936 1955.46 175.744 1946.63 160.192C1937.8 144.64 1933.38 127.072 1933.38 107.488Z" fill="#FFFFFF" />
    </g>
    <defs>
        <clipPath id="clip0_8_0">
            <rect width="2141" height="223" fill="white" />
        </clipPath>
    </defs>
</svg>