<svg xmlns="http://www.w3.org/2000/svg"
    xmlns:xlink="http://www.w3.org/1999/xlink" version="1.1" id="Layer_1" x="0px" y="0px" viewBox="0 0 1400 320.4" style="enable-background:new 0 0 1400 320.4;" xml:space="preserve">
    <style type="text/css">
	.st0{fill-rule:evenodd;clip-rule:evenodd;fill:#FFFFFF;}
	.st1{clip-path:url(#SVGID_00000163069245862835505770000002150118802177733767_);}
	.st2{fill:#FFFFFF;}
	.st3{clip-path:url(#SVGID_00000129888115218939049260000014711445151620918945_);}
	.st4{clip-path:url(#SVGID_00000108999053859440459110000008450205286821769348_);}
	.st5{clip-path:url(#SVGID_00000030482355839727873180000006642519383201074824_);}
	.st6{fill:#FFFFFF;}
	.st7{clip-path:url(#SVGID_00000097458514981362823980000009191174865419184562_);}
	.st8{clip-path:url(#SVGID_00000181082358130061919010000007925508948501489319_);}
	.st9{fill:#FFFFFF;}
    </style>
    <path class="st0" d="M47,156.6l97.6-56.4l97.7,56.3L144.6,213h-0.1L47,156.6z M13,156.6l131.5,76.5h0.1l131.7-76.5L144.6,80.2  L13,156.6z"/>
    <g>
        <defs>
            <path id="SVGID_1_" d="M47,156.6l97.6-56.4l97.7,56.3L144.6,213h-0.1L47,156.6z M13,156.6l131.5,76.5h0.1l131.7-76.5L144.6,80.2    L13,156.6z"/>
        </defs>
        <clipPath id="SVGID_00000019674927963051838590000014844329667572768932_">
            <use xlink:href="#SVGID_1_" style="overflow:visible;"/>
        </clipPath>
        <g style="clip-path:url(#SVGID_00000019674927963051838590000014844329667572768932_);">
            <rect x="-935.8" y="-964.6" class="st2" width="5527.2" height="3684.8"/>
            <g>
                <defs>
                    <rect id="SVGID_00000182527017256310238020000012433129565714172088_" x="-935.8" y="-964.6" width="5527.2" height="3684.8"/>
                </defs>
                <clipPath id="SVGID_00000098194610546680439760000014245307526018814644_">
                    <use xlink:href="#SVGID_00000182527017256310238020000012433129565714172088_" style="overflow:visible;"/>
                </clipPath>
                <g style="clip-path:url(#SVGID_00000098194610546680439760000014245307526018814644_);">
                    <rect x="-10" y="57.2" class="st2" width="309.4" height="199"/>
                </g>
            </g>
        </g>
    </g>
    <g>
        <defs>
            <path id="SVGID_00000157298155036955125930000005142796423288436637_" d="M47,97.2l97.6-56.4l97.7,56.3l-97.7,56.4h-0.1L47,97.2z     M144.6,20.7L13,97.2l131.5,76.5h0.1l131.8-76.5L144.6,20.7z"/>
        </defs>
        <clipPath id="SVGID_00000165230406241028511540000016178322977617999254_">
            <use xlink:href="#SVGID_00000157298155036955125930000005142796423288436637_" style="overflow:visible;"/>
        </clipPath>
        <g style="clip-path:url(#SVGID_00000165230406241028511540000016178322977617999254_);">
            <g>
                <defs>
                    <rect id="SVGID_00000163776478753974720500000003196149188217301644_" x="-935.8" y="-964.6" width="5527.2" height="3684.8"/>
                </defs>
                <clipPath id="SVGID_00000034780860902134521530000010383970671709185937_">
                    <use xlink:href="#SVGID_00000163776478753974720500000003196149188217301644_" style="overflow:visible;"/>
                </clipPath>
                <g style="clip-path:url(#SVGID_00000034780860902134521530000010383970671709185937_);">
                    <rect x="-10" y="-2.3" class="st6" width="309.4" height="199"/>
                </g>
            </g>
        </g>
    </g>
    <g>
        <defs>
            <path id="SVGID_00000093171182301246535310000001689278242473271207_" d="M1339.7,153.8h-7.2V97.2h6.6c6.2,0,10.9,2.2,14.1,6.7    c3.2,4.4,4.8,11,4.8,19.7v3.8c0,8.8-1.6,15.4-4.8,19.9S1345.6,153.8,1339.7,153.8z M1339.6,170.8c7.4,0.1,14.7-1.8,21.1-5.6    c6.2-3.7,11.3-9.1,14.7-15.5c3.6-6.9,5.4-14.6,5.3-22.4v-3.4c0.1-7.8-1.7-15.5-5.3-22.5c-3.4-6.5-8.5-11.8-14.8-15.6    c-6.5-3.8-13.9-5.7-21.4-5.6h-29.2v90.6L1339.6,170.8z M1298.3,170.8v-18.8h-39.2v-18.7h33.1v-18h-33.1V99h39.5V80.2h-62.3v90.6    L1298.3,170.8z M1192,119.8h-15.2V97.2h15.2c4.2,0,7.4,1,9.7,3c2.3,2,3.4,4.8,3.4,8.4c0,3.7-1.1,6.5-3.3,8.4    S1196.3,119.8,1192,119.8L1192,119.8z M1177.2,170.8v-30.6h10.7l15.1,30.6h24.7v-1l-18.4-36c4.7-2.2,8.6-5.6,11.5-9.8    c2.6-4,3.9-9.5,3.9-16.5c0.5-10.8-6.1-20.6-16.2-24.2c-5.8-2.2-12-3.3-18.2-3.1h-36.3v90.6L1177.2,170.8z M1111.7,139.7h-19.8    l9.9-28.3L1111.7,139.7z M1082.7,170.8l4.6-15h29l4.6,15h24.9l-33-90.6h-21.9l-32.8,90.6H1082.7z M1021.3,173.6    c6.7,0.2,13.4-1.2,19.5-3.9c5.3-2.4,9.8-6.5,12.7-11.6c3-5.1,4.5-11.2,4.4-18.4V80.2h-23.7v59.6c0,5.2-1.1,9-3.2,11.3    c-2.1,2.3-5.4,3.5-9.8,3.5c-4.4,0-7.7-1.2-9.9-3.5s-3.3-6.1-3.3-11.3V80.2h-23.8v59.6c0,7.1,1.5,13.2,4.6,18.3    c3.1,5.1,7.6,9.1,12.9,11.6C1007.9,172.4,1014.6,173.8,1021.3,173.6L1021.3,173.6z M936.2,156.6c-5.7,0-9.9-2.3-12.8-6.9    s-4.3-11.2-4.3-19.8v-3.5c0-17.7,5.6-26.5,16.9-26.5c5.1-0.2,10,2.4,12.6,6.8c3,4.5,4.4,11.1,4.4,19.7v3.5c0,8.5-1.5,15-4.4,19.7    C946.1,154.1,941.3,156.8,936.2,156.6L936.2,156.6z M959.8,190.6l14.6-12.6L960,166.4c5.1-4.1,9.1-9.4,11.7-15.5    c2.9-6.9,4.3-14.3,4.1-21.8v-3.3c0-9.2-1.8-17.3-5.3-24.2c-3.2-6.6-8.3-12.1-14.6-15.9c-13.2-7.4-29.4-7.4-42.6,0    c-6.3,3.8-11.3,9.3-14.5,15.9c-3.4,6.9-5.2,14.9-5.2,24.2v3.3c0,9.2,1.7,17.3,5.2,24.2c3.2,6.6,8.2,12.1,14.5,15.9    c6.5,3.8,13.9,5.7,21.4,5.5c1.7,0,3.4-0.1,5.1-0.3L959.8,190.6z M850.7,173.6c6.2,0.1,12.4-0.9,18.2-3c4.8-1.7,8.9-4.8,12-8.8    c2.9-4.1,4.4-9,4.2-14.1c0.2-7-2.7-13.8-7.8-18.5c-5.2-4.8-12.9-8.9-23.1-12.1c-4.3-1.3-8.4-3-12.3-5.2c-2.7-1.6-4-3.6-4-5.9    c0-1.4,0.5-2.7,1.4-3.8c1.1-1.3,2.5-2.2,4.1-2.8c2.1-0.8,4.3-1.1,6.5-1.1c3.8,0,6.7,0.9,8.7,2.7c2,1.9,3.1,4.6,3,7.3h23.6    c0.1-5.4-1.4-10.8-4.5-15.3c-3.1-4.4-7.4-7.7-12.3-9.8c-5.7-2.3-11.8-3.5-17.9-3.4c-6.3-0.1-12.6,1-18.6,3.1    c-5,1.8-9.5,4.9-12.9,9c-3.1,3.9-4.8,8.7-4.7,13.7c-0.1,4.9,1.4,9.7,4.3,13.7c3,3.9,6.8,7.1,11.1,9.3c5.2,2.7,10.6,5,16.2,6.8    c3.4,1.1,6.7,2.4,9.9,4c1.8,0.8,3.3,2.1,4.5,3.7c0.8,1.4,1.2,2.9,1.1,4.5c0,2.1-1,4-2.6,5.3c-1.8,1.4-4.5,2.2-8.1,2.2    c-3,0.1-5.9-0.3-8.7-1.2c-2.1-0.7-3.9-2.2-5-4.2c-1.2-2.5-1.8-5.2-1.7-8h-23.8c0,7.2,1.9,13.1,5.6,17.9c3.7,4.8,8.8,8.4,14.5,10.5    C837.7,172.5,844.2,173.7,850.7,173.6L850.7,173.6z M774.3,170.8V86.7h31.5v-6.5h-70.8v6.5h31.5v84.1L774.3,170.8z M660.7,170.8    v-43.5h52.5v43.4h7.8V80.2h-7.8v40.6h-52.5V80.2H653v90.6L660.7,170.8z M598.7,173.6c5.2,0.1,10.3-0.6,15.3-1.9    c3.7-1,7.2-2.6,10.5-4.7c2.2-1.5,4.2-3.4,5.8-5.5v-32.4h-32v6.6h24.4v23.5c-1.3,1.5-2.8,2.7-4.6,3.6c-2.5,1.4-5.2,2.4-8,3    c-3.7,0.9-7.5,1.3-11.3,1.2c-5.4,0.1-10.6-1.4-15.1-4.3c-4.5-3-8-7.3-10.1-12.3c-2.5-5.8-3.7-12.1-3.5-18.4v-11.1    c-0.1-6.2,1-12.3,3.2-18c1.9-4.8,5.2-8.9,9.4-11.9c4.4-2.9,9.6-4.4,14.9-4.2c7.7,0,13.5,1.9,17.5,5.6c4.1,3.9,6.7,9,7.5,14.6h7.7    c-0.6-5-2.3-9.7-5-13.9c-2.7-4.1-6.5-7.4-10.9-9.5c-5.3-2.4-11-3.6-16.8-3.4c-6.6-0.2-13.1,1.6-18.7,5c-5.4,3.4-9.6,8.4-12.2,14.2    c-2.8,6.2-4.3,13.4-4.3,21.7v11c-0.1,7.6,1.5,15.1,4.7,21.9c2.8,6,7.3,11,12.9,14.5C585.6,172,592.1,173.7,598.7,173.6    L598.7,173.6z M536.8,170.8V80.2h-8.5v90.6L536.8,170.8z M480.1,173.6c5.5,0.1,11-0.9,16.1-2.9c4.4-1.7,8.2-4.5,11.1-8.2    c2.7-3.7,4.1-8.1,4-12.6c0.1-4.3-1.1-8.6-3.5-12.2c-2.6-3.6-6-6.6-10-8.6c-5.3-2.7-10.9-4.8-16.7-6.2c-5-1.2-9.8-3-14.4-5.2    c-3-1.4-5.6-3.6-7.6-6.2c-1.6-2.3-2.4-5.1-2.3-7.9c0-3,0.9-6,2.6-8.5c2-2.7,4.7-4.8,7.8-6c3.9-1.6,8.1-2.4,12.4-2.2    c4.3-0.1,8.6,0.8,12.5,2.7c3.4,1.6,6.2,4.2,8.1,7.3c1.9,3.2,2.9,6.9,2.8,10.6h7.7c0.1-4.9-1.3-9.7-3.8-13.8    c-2.7-4.2-6.4-7.6-10.9-9.8c-5.1-2.5-10.7-3.7-16.4-3.6c-5.4-0.1-10.8,0.9-15.8,3c-4.3,1.7-8,4.6-10.8,8.3    c-2.6,3.6-3.9,7.8-3.9,12.2c-0.1,4.2,1.1,8.3,3.5,11.8c2.6,3.5,6,6.2,9.9,8.1c5.2,2.5,10.7,4.5,16.3,6c5.1,1.3,10.1,3.2,14.9,5.5    c3,1.4,5.7,3.6,7.6,6.3c1.6,2.6,2.4,5.6,2.3,8.6c0.1,3.2-1,6.4-2.9,9c-2.1,2.7-5,4.8-8.2,6c-4,1.5-8.1,2.2-12.4,2.1    c-4.3,0-8.6-0.7-12.7-2.1c-3.8-1.3-7.2-3.6-9.7-6.8c-2.5-3.1-3.8-7-3.8-11.9h-7.7c0,6.1,1.6,11.1,4.9,15.2    c3.3,4.1,7.7,7.2,12.7,9.1C469.1,172.7,474.6,173.6,480.1,173.6L480.1,173.6z M369,170.8V93.2l52.4,77.6h7.8V80.2h-7.7v77.5    l-52.4-77.5h-7.8v90.6L369,170.8z M335.8,170.8V80.2h-8.5v90.6L335.8,170.8z"/>
        </defs>
        <clipPath id="SVGID_00000060736482020475241320000011969524672934748573_">
            <use xlink:href="#SVGID_00000093171182301246535310000001689278242473271207_" style="overflow:visible;"/>
        </clipPath>
        <g style="clip-path:url(#SVGID_00000060736482020475241320000011969524672934748573_);">
            <g>
                <defs>
                    <rect id="SVGID_00000072280391799846773850000009653555272167662525_" x="-935.8" y="-964.6" width="5527.2" height="3684.8"/>
                </defs>
                <clipPath id="SVGID_00000123414461191035671670000002460252754172972705_">
                    <use xlink:href="#SVGID_00000072280391799846773850000009653555272167662525_" style="overflow:visible;"/>
                </clipPath>
                <g style="clip-path:url(#SVGID_00000123414461191035671670000002460252754172972705_);">
                    <rect x="304.3" y="57.2" class="st9" width="1099.4" height="156.5"/>
                </g>
            </g>
        </g>
    </g>
    <path class="st2" d="M564.7,269.2h-25.6l-4.9,13.5h-8.1l21.5-57.1h8.5l21.5,57.1h-8.1L564.7,269.2z M562.5,263.3l-10.7-29.4  l-10.7,29.4H562.5z"/>
    <path class="st2" d="M663.9,225.4v57.2h-7.5V237l-18.2,45.7h-6.7l-18.3-45.5v45.5h-7.5v-57.2h9l20.3,48l20-48.1L663.9,225.4z"/>
    <path class="st2" d="M717.3,261.6h-36.2c0.2,5.2,1.6,9.1,4.4,11.6c2.8,2.6,6.4,4,10.2,3.9c3.3,0.1,6.5-0.9,9.1-2.8  c2.4-1.8,4-4.4,4.5-7.4h8c-1.1,6.3-5.2,11.6-11.1,14.2c-3.2,1.4-6.7,2.1-10.2,2.1c-4,0.1-8-0.9-11.6-2.8c-3.3-1.9-6.1-4.7-7.9-8  c-3.8-7.8-3.8-16.9,0-24.7c1.8-3.4,4.5-6.2,7.9-8.1c3.5-1.9,7.5-2.9,11.6-2.8c4-0.1,8,0.9,11.5,2.8c3.2,1.8,5.8,4.4,7.5,7.5  c1.7,3.2,2.6,6.8,2.6,10.4C717.6,258.9,717.5,260.2,717.3,261.6z M708.4,249.6c-1.2-2.2-3-3.9-5.2-5c-2.2-1.1-4.7-1.7-7.2-1.6  c-3.8-0.1-7.6,1.3-10.4,3.8c-2.8,2.6-4.3,6.3-4.5,11.3h29C710.3,255.1,709.7,252.2,708.4,249.6L708.4,249.6z"/>
    <path class="st2" d="M757.2,240c3,2.2,5.3,5.3,6.4,8.8v-27.3h7.5v61.1h-7.5v-11.6c-1.1,3.6-3.4,6.7-6.4,8.8  c-3.3,2.3-7.2,3.4-11.2,3.3c-3.8,0.1-7.5-0.9-10.7-2.8c-3.2-1.9-5.7-4.7-7.4-8c-3.6-7.9-3.6-16.9,0-24.7c1.6-3.4,4.2-6.2,7.4-8.1  c3.3-1.9,7-2.9,10.7-2.8C750,236.6,753.9,237.7,757.2,240z M737.1,247.8c-2.8,2.9-4.2,7-4.2,12.2c0,5.2,1.4,9.2,4.2,12.2  c2.8,3,6.5,4.4,11.1,4.4c2.8,0.1,5.6-0.7,8-2.1c2.3-1.4,4.2-3.4,5.5-5.8c1.4-2.7,2.1-5.7,2-8.7c0.1-3-0.6-6-2-8.8  c-1.2-2.4-3.1-4.5-5.5-5.8c-2.4-1.4-5.2-2.1-8-2C743.6,243.4,739.9,244.9,737.1,247.8L737.1,247.8z"/>
    <path class="st2" d="M783.2,220.7c2.2-1.7,5.3-1.7,7.4,0c1.8,1.8,1.9,4.8,0,6.6c0,0,0,0,0,0c-2.2,1.7-5.3,1.7-7.4,0  C781.3,225.5,781.3,222.6,783.2,220.7C783.2,220.7,783.2,220.7,783.2,220.7z M790.6,237.3v45.3h-7.5v-45.3L790.6,237.3z"/>
    <path class="st2" d="M832.4,240c3,2.2,5.3,5.3,6.4,8.8v-11.5h7.5v45.3h-7.5v-11.6c-1.1,3.6-3.4,6.7-6.4,8.8  c-3.3,2.3-7.2,3.4-11.2,3.3c-3.8,0.1-7.5-0.9-10.7-2.8c-3.2-1.9-5.7-4.7-7.4-8c-3.6-7.9-3.6-16.9,0-24.7c1.6-3.4,4.2-6.2,7.4-8.1  c3.3-1.9,7-2.9,10.7-2.8C825.2,236.6,829.2,237.7,832.4,240z M812.3,247.8c-2.8,2.9-4.2,7-4.2,12.2c0,5.2,1.4,9.2,4.2,12.2  c2.8,3,6.5,4.4,11.1,4.4c2.8,0.1,5.6-0.7,8-2.1c2.3-1.4,4.2-3.4,5.5-5.8c1.4-2.7,2.1-5.7,2-8.7c0.1-3-0.6-6-2-8.8  c-1.2-2.4-3.1-4.4-5.5-5.8c-2.4-1.4-5.2-2.1-8-2C818.8,243.4,815.1,244.9,812.3,247.8L812.3,247.8z"/>
    <path class="st2" d="M870,228.6c-1.6,1.4-2.3,3.9-2.3,7.4v1.2h10.7v6.6h-10.7v38.7h-7.5v-38.7h-6.5v-6.6h6.5v-1.8  c0-10.8,6.1-16,18.2-15.5v6.6C874.4,226.5,871.6,227.2,870,228.6z"/>
    <path class="st2" d="M894.1,221.6v61.1h-7.5v-61.1L894.1,221.6z"/>
    <path class="st2" d="M909.3,237.3L924,273l13.6-35.7h8.3l-27,66.8h-8.5l9.4-22.2l-19.1-44.6L909.3,237.3z"/>
    <path class="st2" d="M1016.5,229.1c4.7,3.6,8.1,8.6,9.6,14.3h-7.9c-1.4-3.7-3.9-6.9-7.2-9.2c-3.6-2.4-7.8-3.6-12.1-3.4  c-7.4-0.2-14.1,4-17.3,10.7c-1.8,3.8-2.7,7.9-2.6,12.1c-0.1,4.1,0.8,8.3,2.6,12c3.2,6.6,9.9,10.8,17.3,10.6  c4.3,0.1,8.5-1.1,12.1-3.4c3.3-2.3,5.8-5.5,7.2-9.2h7.9c-1.5,5.7-4.9,10.7-9.6,14.3c-4.6,3.5-10.5,5.2-17.6,5.2  c-5.1,0.1-10.1-1.2-14.5-3.8c-4.2-2.5-7.6-6.1-9.8-10.5c-2.4-4.7-3.6-10-3.5-15.3c-0.1-5.4,1.1-10.6,3.5-15.4  c2.2-4.4,5.6-8,9.8-10.5c4.4-2.6,9.4-3.9,14.5-3.8C1006,223.9,1011.9,225.6,1016.5,229.1z"/>
    <path class="st2" d="M1068.4,239.6c3.4,1.9,6.2,4.7,8.1,8.1c3.9,7.8,3.9,17,0,24.7c-1.9,3.4-4.7,6.2-8.1,8c-7.3,3.7-16,3.7-23.4,0  c-3.4-1.9-6.2-4.6-8.1-8c-4-7.8-4-17,0-24.7c1.9-3.4,4.7-6.2,8.1-8.1C1052.4,235.8,1061.1,235.8,1068.4,239.6z M1049.2,245.2  c-2.4,1.3-4.3,3.2-5.5,5.6c-2.8,5.8-2.8,12.6,0,18.5c1.3,2.4,3.2,4.3,5.5,5.6c4.7,2.4,10.3,2.4,14.9,0c2.4-1.3,4.3-3.2,5.5-5.6  c2.8-5.8,2.8-12.6,0-18.5c-1.3-2.4-3.2-4.3-5.5-5.6C1059.5,242.7,1053.9,242.7,1049.2,245.2z"/>
    <path class="st2" d="M1157.7,241.6c3.2,3.4,4.8,8.3,4.8,14.7v26.3h-7.5V257c0-4.5-1.1-7.9-3.3-10.2c-2.3-2.4-5.6-3.7-9-3.6  c-3.6-0.1-7.1,1.3-9.5,3.9c-2.4,2.6-3.6,6.5-3.6,11.5v24h-7.5V257c0-4.5-1.1-7.9-3.3-10.2c-2.3-2.4-5.6-3.7-8.9-3.6  c-3.6-0.2-7.1,1.3-9.6,3.9c-2.4,2.6-3.6,6.5-3.6,11.5v24h-7.5v-45.3h7.5v10.3c0.9-3.4,3-6.3,5.9-8.2c6.1-3.8,13.8-3.8,19.8,0.1  c2.9,2.1,5.1,5.1,6.1,8.6c1.1-3.5,3.3-6.5,6.4-8.6c3-2,6.5-3.1,10.1-3C1150.2,236.6,1154.5,238.3,1157.7,241.6z"/>
    <path class="st2" d="M1210,239.6c3.2,1.9,5.8,4.7,7.4,8.1c3.6,7.9,3.6,16.9,0,24.7c-1.6,3.3-4.2,6.1-7.4,8c-3.3,1.9-7,2.9-10.7,2.8  c-4,0.1-7.9-1.1-11.2-3.4c-3-2.2-5.2-5.2-6.3-8.8v33h-7.5v-66.8h7.5v11.6c1.1-3.5,3.3-6.6,6.3-8.8c3.3-2.3,7.2-3.5,11.2-3.4  C1203,236.7,1206.7,237.6,1210,239.6z M1189.2,245.4c-2.4,1.4-4.3,3.4-5.5,5.8c-1.4,2.7-2.1,5.7-2,8.8c-0.1,3,0.6,6,2,8.7  c1.2,2.4,3.2,4.5,5.5,5.8c2.4,1.4,5.2,2.1,7.9,2.1c4.7,0,8.4-1.5,11.2-4.4c2.8-2.9,4.2-7,4.2-12.2c0-5.2-1.4-9.2-4.2-12.2  c-2.8-2.9-6.5-4.4-11.2-4.4C1194.3,243.4,1191.6,244.1,1189.2,245.4L1189.2,245.4z"/>
    <path class="st2" d="M1259.6,240c3,2.2,5.3,5.3,6.4,8.8v-11.5h7.5v45.3h-7.5v-11.6c-1.1,3.6-3.4,6.7-6.4,8.8  c-3.3,2.3-7.2,3.4-11.2,3.3c-3.8,0.1-7.5-0.9-10.7-2.8c-3.2-1.9-5.7-4.7-7.4-8c-3.6-7.9-3.6-16.9,0-24.7c1.6-3.4,4.2-6.2,7.4-8.1  c3.3-1.9,7-2.9,10.7-2.8C1252.4,236.6,1256.3,237.7,1259.6,240z M1239.5,247.8c-2.8,2.9-4.2,7-4.2,12.2c0,5.2,1.4,9.2,4.2,12.2  c2.8,3,6.5,4.4,11.1,4.4c2.8,0,5.6-0.7,8-2.1c2.3-1.4,4.2-3.4,5.5-5.8c1.4-2.7,2.1-5.7,2-8.7c0.1-3-0.6-6-2-8.8  c-1.2-2.4-3.1-4.5-5.5-5.8c-2.4-1.4-5.2-2.1-8-2C1246,243.4,1242.2,244.9,1239.5,247.8L1239.5,247.8z"/>
    <path class="st2" d="M1322.2,241.6c3.3,3.4,4.9,8.3,4.9,14.7v26.3h-7.5V257c0-4.5-1.2-8-3.5-10.4c-2.5-2.5-5.9-3.8-9.4-3.6  c-3.7-0.2-7.3,1.3-9.9,4c-2.5,2.7-3.7,6.6-3.7,11.7v24h-7.5v-45.3h7.5v10.7c1-3.5,3.2-6.5,6.2-8.5c3-2,6.6-3.1,10.2-3  C1314.7,236.6,1318.9,238.3,1322.2,241.6z"/>
    <path class="st2" d="M1341.7,237.3l14.7,35.7l13.6-35.7h8.3l-26.9,66.8h-8.5l9.4-22.2l-19.1-44.6L1341.7,237.3z"/>
</svg>