<svg xmlns="http://www.w3.org/2000/svg" width="233" height="44" viewBox="0 0 233 44" fill="none">
    <path d="M9.60732 36.5649C8.8397 36.5657 8.09519 36.3025 7.49876 35.8196C4.26172 33.2093 1.912 29.662 0.771918 25.6642C-0.368167 21.6665 -0.242776 17.414 1.13089 13.4903C2.50456 9.56656 5.05923 6.16372 8.44445 3.74851C11.8297 1.33331 15.8796 0.0240393 20.0388 0.000327845C24.198 -0.0233836 28.2627 1.23964 31.6752 3.61609C35.0878 5.99255 37.6811 9.36607 39.0995 13.2739C40.5179 17.1817 40.6918 21.4324 39.5974 25.4429C38.503 29.4534 36.1939 33.0273 32.9869 35.6743C32.2987 36.228 31.42 36.4885 30.541 36.3993C29.662 36.3101 28.8536 35.8784 28.2908 35.1978C27.728 34.5171 27.4561 33.6422 27.5341 32.7626C27.612 31.883 28.0335 31.0696 28.7073 30.4984C30.8462 28.734 32.3864 26.3514 33.1167 23.6774C33.847 21.0034 33.7315 18.1691 32.7861 15.5633C31.8407 12.9575 30.1117 10.7079 27.8364 9.12317C25.561 7.53845 22.8508 6.69624 20.0775 6.71209C17.3042 6.72794 14.6038 7.60113 12.3467 9.21175C10.0897 10.8224 8.38653 13.0916 7.47101 15.708C6.55549 18.3244 6.47245 21.1598 7.23326 23.8253C7.99408 26.4908 9.56149 28.8557 11.7204 30.5955C12.261 31.0319 12.6529 31.6251 12.842 32.2934C13.0312 32.9617 13.0083 33.6722 12.7766 34.3269C12.5449 34.9817 12.1157 35.5486 11.5482 35.9494C10.9807 36.3502 10.3028 36.5653 9.60792 36.5649H9.60732Z" fill="#FFFFFF" />
    <path d="M20.1527 43.8788C22.8512 43.8788 25.0388 41.6924 25.0388 38.9954C25.0388 36.2983 22.8512 34.1119 20.1527 34.1119C17.4542 34.1119 15.2666 36.2983 15.2666 38.9954C15.2666 41.6924 17.4542 43.8788 20.1527 43.8788Z" fill="#FFFFFF" />
    <path d="M20.1529 26.9901C23.8633 26.9901 26.8711 23.984 26.8711 20.2757C26.8711 16.5673 23.8633 13.5612 20.1529 13.5612C16.4426 13.5612 13.4348 16.5673 13.4348 20.2757C13.4348 23.984 16.4426 26.9901 20.1529 26.9901Z" fill="#FFFFFF" />
    <path d="M47.2854 11.0424H54.4272C58.3641 11.0424 61.582 14.2924 61.582 18.2726C61.582 22.2404 58.3644 25.4783 54.4272 25.4783H51.3736V32.4298H47.2854V11.0424ZM57.4935 18.2326C57.4935 16.6138 56.1181 15.3009 54.4272 15.3009H51.3736V21.2183L54.4272 21.2317C56.1181 21.2447 57.4947 19.8915 57.4947 18.2326H57.4935Z" fill="#FFFFFF" />
    <path d="M80.0235 32.4295L73.5501 22.3192V32.4295H69.4628L69.4504 11.0424H76.0878C79.8861 11.0424 83.001 14.1214 83.001 17.9673C83.001 20.714 81.4233 23.1153 79.2407 23.9248L85.0197 32.4295H80.0235ZM73.5383 20.674L76.1629 20.6877C76.504 20.6954 76.8431 20.6315 77.1604 20.4997C77.4776 20.3678 77.7666 20.1707 78.0105 19.9198C78.2543 19.6689 78.448 19.3693 78.5803 19.0387C78.7125 18.708 78.7807 18.353 78.7807 17.9943C78.7807 17.6356 78.7125 17.2805 78.5803 16.9498C78.448 16.6192 78.2543 16.3197 78.0105 16.0688C77.7666 15.8179 77.4776 15.6207 77.1604 15.4889C76.8431 15.357 76.504 15.2932 76.1629 15.3009H73.5383V20.674Z" fill="#FFFFFF" />
    <path d="M90.6637 21.924C90.6548 19.7208 91.2683 17.5645 92.4264 15.7284C93.5844 13.8923 95.2349 12.459 97.1685 11.6104C99.1022 10.7617 101.232 10.5358 103.288 10.9613C105.344 11.3869 107.233 12.4447 108.717 14.0007C110.2 15.5566 111.211 17.5407 111.62 19.7013C112.03 21.8619 111.821 24.1019 111.018 26.1372C110.216 28.1724 108.857 29.9113 107.114 31.1334C105.37 32.3556 103.321 33.006 101.226 33.0021C98.4335 32.9862 95.7598 31.8148 93.7831 29.7414C91.8063 27.6681 90.6857 24.8597 90.6637 21.924ZM107.686 21.897C107.691 20.5554 107.317 19.2424 106.612 18.1242C105.907 17.0059 104.903 16.1328 103.726 15.6151C102.549 15.0975 101.252 14.9587 99.9997 15.2163C98.7475 15.4738 97.5961 16.1162 96.6913 17.0621C95.7864 18.008 95.1688 19.2149 94.9166 20.53C94.6644 21.8451 94.7888 23.2093 95.2743 24.45C95.7597 25.6907 96.5843 26.7521 97.6437 27.4998C98.7031 28.2475 99.9496 28.648 101.226 28.6505C102.931 28.6469 104.567 27.9354 105.777 26.6708C106.986 25.4062 107.673 23.6906 107.686 21.897V21.897Z" fill="#FFFFFF" />
    <path d="M119.722 11.0424H126.865C130.801 11.0424 134.019 14.2924 134.019 18.2726C134.019 22.2404 130.801 25.4783 126.865 25.4783H123.811V32.4298H119.722V11.0424ZM129.931 18.2326C129.931 16.6138 128.555 15.3009 126.865 15.3009H123.811V21.2183L126.865 21.2317C128.555 21.2447 129.931 19.8915 129.931 18.2326Z" fill="#FFFFFF" />
    <path d="M157.264 11.0424V32.4295H153.188V23.859H145.883V32.4295H141.807V11.0424H145.883V19.5995H153.188V11.0424H157.264Z" fill="#FFFFFF" />
    <path d="M172.92 15.2756V19.4538H179.935V23.7391H172.92V28.157H181.097V32.4295H168.832V11.0424H181.097V15.2743L172.92 15.2756Z" fill="#FFFFFF" />
    <path d="M206.186 15.3009H201.189V32.4295H197.087V15.3009H192.079V11.0424H206.186V15.3009Z" fill="#FFFFFF" />
    <path d="M211.839 21.924C211.83 19.7208 212.444 17.5645 213.602 15.7284C214.76 13.8923 216.41 12.459 218.344 11.6104C220.277 10.7617 222.407 10.5358 224.463 10.9613C226.519 11.3869 228.408 12.4447 229.892 14.0007C231.375 15.5566 232.386 17.5407 232.796 19.7013C233.206 21.8619 232.996 24.1019 232.194 26.1372C231.391 28.1724 230.032 29.9113 228.289 31.1334C226.545 32.3556 224.496 33.006 222.401 33.0021C219.609 32.9862 216.935 31.8148 214.958 29.7414C212.982 27.6681 211.861 24.8597 211.839 21.924V21.924ZM228.861 21.897C228.866 20.5554 228.493 19.2424 227.788 18.1242C227.083 17.0059 226.078 16.1328 224.901 15.6151C223.724 15.0975 222.427 14.9587 221.175 15.2163C219.923 15.4738 218.771 16.1162 217.867 17.0621C216.962 18.008 216.344 19.2149 216.092 20.53C215.84 21.8451 215.964 23.2093 216.45 24.45C216.935 25.6907 217.76 26.7521 218.819 27.4998C219.878 28.2475 221.125 28.648 222.401 28.6505C224.107 28.6469 225.742 27.9354 226.952 26.6708C228.162 25.4062 228.848 23.6906 228.861 21.897V21.897Z" fill="#FFFFFF" />
</svg>